<svg width="42" height="42" viewBox="0 0 42 42" fill="none" xmlns="http://www.w3.org/2000/svg">
<circle cx="21" cy="21" r="20.5" fill="white" stroke="#002855"/>
<path fill-rule="evenodd" clip-rule="evenodd" d="M25.948 32.9575C24.494 32.9575 22.5898 31.9692 21.2479 31.1411C19.432 30.0185 17.4735 28.465 15.7343 26.767L15.1754 26.2062C13.4818 24.4645 11.9317 22.5012 10.8125 20.6804C9.98533 19.3356 9 17.4261 9 15.9702C9 14.4226 10.1217 12.7566 10.6039 12.1123C11.3675 11.0911 12.479 10 13.3071 10C13.7049 10 14.176 10.2964 14.7882 10.9329C15.3685 11.536 15.9274 12.2879 16.2941 12.8129C16.787 13.5187 17.2431 14.2576 17.5778 14.8936C18.1634 16.0056 18.1634 16.3932 18.1634 16.5208C18.1634 16.9356 17.9383 17.3014 17.4953 17.6085C17.18 17.8268 16.7885 17.9961 16.4106 18.1606L16.4062 18.1625C16.0326 18.3241 15.6843 18.4808 15.515 18.6157L15.401 18.7069L15.4345 18.8485C15.4674 18.9902 15.6387 19.5433 16.4266 20.7027C17.0466 21.6153 17.8505 22.6064 18.5762 23.3531L18.5806 23.3579C19.3272 24.0876 20.3165 24.8929 21.2261 25.5134C22.3832 26.3028 22.9343 26.4735 23.0759 26.5065L23.2181 26.5405L23.3093 26.426C23.4437 26.2562 23.6004 25.9059 23.7624 25.5323C23.9264 25.1515 24.0957 24.759 24.3145 24.4408C24.6202 23.9974 24.985 23.7727 25.3988 23.7727C25.5254 23.7727 25.9126 23.7727 27.0211 24.3593C27.6562 24.6935 28.3926 25.1515 29.0971 25.6449C29.621 26.0126 30.372 26.5725 30.9731 27.1542C31.6086 27.7684 31.9036 28.2399 31.9036 28.6392C31.9036 29.4703 30.8154 30.5846 29.7966 31.3502C29.1533 31.8329 27.4917 32.9575 25.948 32.9575ZM13.2154 10.9392C13.1266 10.9664 12.8768 11.0688 12.4634 11.4273C12.0797 11.7606 11.6625 12.2239 11.2884 12.7328C10.4302 13.8991 9.91838 15.109 9.91838 15.9697C9.91838 16.924 10.5297 18.4648 11.5941 20.1963C12.6784 21.9602 14.1833 23.8654 15.8303 25.56L16.3776 26.1097C18.0698 27.7611 19.9705 29.2689 21.7297 30.3556C23.4578 31.4225 24.9952 32.0357 25.9475 32.0357C26.8062 32.0357 28.0132 31.5219 29.1781 30.6627C29.6846 30.2877 30.1469 29.8686 30.4802 29.4838C30.8387 29.0695 30.9396 28.8197 30.9673 28.7304L30.9935 28.646L30.9561 28.5664C30.8251 28.2841 30.1489 27.4918 28.4479 26.3159C27.8061 25.8724 27.1414 25.463 26.5753 25.1646C25.8704 24.794 25.5502 24.7144 25.4459 24.6984L25.3547 24.6843L25.279 24.7362C25.1907 24.7969 25.0951 24.9133 24.9937 25.0841C24.8574 25.3145 24.7303 25.608 24.6071 25.8923L24.6051 25.8972C24.4605 26.2314 24.3116 26.5773 24.134 26.8495C23.8692 27.2522 23.5664 27.4482 23.2094 27.4482C23.2074 27.4482 23.1972 27.4482 23.1934 27.4482L23.1895 27.4472C23.0983 27.4462 22.9091 27.4414 22.5389 27.3021C22.0552 27.1193 21.4386 26.7733 20.708 26.2751C19.7508 25.6211 18.7135 24.775 17.9325 24.0114L17.9223 24.0017C17.1601 23.2182 16.3164 22.1786 15.6664 21.2218C15.1686 20.4888 14.8232 19.8707 14.6408 19.3856C14.5015 19.0144 14.4976 18.8248 14.4957 18.7335C14.4879 18.3687 14.6815 18.0607 15.0876 17.7909C15.3583 17.6114 15.7056 17.461 16.0423 17.315C16.3286 17.1908 16.6235 17.0627 16.854 16.9254C17.0248 16.8235 17.1456 16.7236 17.2033 16.6372L17.2533 16.5625L17.2397 16.4738C17.2237 16.3694 17.1456 16.0493 16.7744 15.3419C16.478 14.7767 16.0705 14.1101 15.6266 13.4649C14.453 11.7601 13.6627 11.0824 13.3813 10.9509L13.3008 10.913L13.2154 10.9392Z" fill="#002855"/>
<path fill-rule="evenodd" clip-rule="evenodd" d="M24.7503 20.9059C24.5422 20.9059 24.3656 20.7565 24.3287 20.5508C24.2011 19.8265 23.7834 19.1973 23.1513 18.7796C22.6656 18.4584 22.0961 18.2886 21.5028 18.2886C21.3199 18.2886 21.1345 18.3051 20.9521 18.3371C20.9274 18.3415 20.9022 18.3439 20.8774 18.3439C20.6693 18.3439 20.4917 18.194 20.4563 17.9888C20.4146 17.7554 20.5708 17.5318 20.8037 17.491C21.0356 17.4498 21.2694 17.4294 21.5042 17.4294C22.2649 17.4294 22.998 17.6482 23.6238 18.0625C24.4539 18.6117 25.0045 19.4427 25.1734 20.4019C25.2146 20.6352 25.0584 20.8589 24.8255 20.8996C24.8008 20.904 24.7755 20.9059 24.7503 20.9059ZM27.7936 19.597C27.5855 19.597 27.4084 19.4476 27.372 19.2419C27.1285 17.8563 26.3299 16.6537 25.1234 15.8556C24.2016 15.2453 23.1193 14.9232 21.9937 14.9232C21.6449 14.9232 21.2961 14.9537 20.9521 15.0148C20.9274 15.0192 20.9022 15.0216 20.8774 15.0216C20.6693 15.0216 20.4917 14.8722 20.4558 14.6665C20.4146 14.4327 20.5708 14.2095 20.8037 14.1683C21.1981 14.0984 21.5998 14.0635 21.9962 14.0635C23.2886 14.0635 24.5335 14.4351 25.5964 15.1381C27.0014 16.0676 27.9324 17.4721 28.2171 19.093C28.237 19.205 28.2118 19.3205 28.1463 19.4136C28.0818 19.5073 27.9819 19.5713 27.8698 19.5912C27.8441 19.5951 27.8193 19.597 27.7936 19.597Z" fill="#002855"/>
<path fill-rule="evenodd" clip-rule="evenodd" d="M31.8577 19.2201C31.6496 19.2201 31.472 19.0702 31.4361 18.8645C31.0223 16.5144 29.6692 14.4754 27.6258 13.1238C26.0665 12.0928 24.2385 11.5475 22.3377 11.5475C21.7531 11.5475 21.1617 11.5994 20.5791 11.7023C20.5539 11.7071 20.5286 11.7091 20.5039 11.7091C20.2963 11.7091 20.1187 11.5597 20.0828 11.354C20.0416 11.1206 20.1973 10.8974 20.4311 10.8562C21.0633 10.7446 21.7056 10.6874 22.3397 10.6874C24.4074 10.6874 26.3994 11.2817 28.0988 12.4058C30.3416 13.8893 31.8271 16.1307 32.2817 18.7155C32.323 18.9489 32.1667 19.172 31.9339 19.2133C31.9082 19.2177 31.8829 19.2201 31.8577 19.2201Z" fill="#002855"/>
</svg>
